<svg width="114" height="21" viewBox="0 0 114 21" fill="none" xmlns="http://www.w3.org/2000/svg">
<path d="M2.41082 0.864154C2.57215 0.864154 2.70782 0.871487 2.81782 0.886154C2.92782 0.90082 3.02682 0.930154 3.11482 0.974154C3.20282 1.01082 3.28715 1.06582 3.36782 1.13915C3.44849 1.21249 3.54015 1.31149 3.64282 1.43615L11.2548 11.0612C11.2255 10.7532 11.2035 10.4562 11.1888 10.1702C11.1742 9.87682 11.1668 9.60182 11.1668 9.34515V0.864154H14.4448V16.8912H12.5088C12.2228 16.8912 11.9808 16.8472 11.7828 16.7592C11.5848 16.6712 11.3942 16.5098 11.2108 16.2752L3.65382 6.72715C3.67582 7.00582 3.69415 7.28082 3.70882 7.55215C3.72349 7.81615 3.73082 8.06549 3.73082 8.30015V16.8912H0.45282V0.864154H2.41082Z" fill="#161616"/>
<path d="M21.1077 5.28615C21.5917 5.28615 22.0464 5.33382 22.4717 5.42915C22.9044 5.52449 23.3041 5.66015 23.6707 5.83615H27.1137V7.07915C27.1137 7.26982 27.0587 7.42015 26.9487 7.53015C26.8461 7.64015 26.6664 7.72449 26.4097 7.78315L25.5737 7.97015C25.6764 8.30015 25.7277 8.64115 25.7277 8.99315C25.7277 9.56515 25.6067 10.0785 25.3647 10.5332C25.1301 10.9878 24.8037 11.3765 24.3857 11.6992C23.9751 12.0145 23.4874 12.2602 22.9227 12.4362C22.3581 12.6048 21.7531 12.6892 21.1077 12.6892C20.7484 12.6892 20.4111 12.6672 20.0957 12.6232C19.8464 12.7698 19.7217 12.9385 19.7217 13.1292C19.7217 13.3198 19.8207 13.4592 20.0187 13.5472C20.2241 13.6278 20.4917 13.6865 20.8217 13.7232C21.1517 13.7525 21.5294 13.7745 21.9547 13.7892C22.3801 13.7965 22.8127 13.8222 23.2527 13.8662C23.6927 13.9028 24.1254 13.9688 24.5507 14.0642C24.9761 14.1595 25.3537 14.3135 25.6837 14.5262C26.0137 14.7388 26.2777 15.0248 26.4757 15.3842C26.6811 15.7362 26.7837 16.1872 26.7837 16.7372C26.7837 17.2505 26.6591 17.7528 26.4097 18.2442C26.1604 18.7355 25.7937 19.1718 25.3097 19.5532C24.8257 19.9345 24.2317 20.2388 23.5277 20.4662C22.8237 20.7008 22.0171 20.8182 21.1077 20.8182C20.2131 20.8182 19.4394 20.7338 18.7867 20.5652C18.1414 20.3965 17.6024 20.1728 17.1697 19.8942C16.7444 19.6228 16.4291 19.3075 16.2237 18.9482C16.0184 18.5888 15.9157 18.2148 15.9157 17.8262C15.9157 17.3202 16.0697 16.8948 16.3777 16.5502C16.6857 16.1982 17.1074 15.9232 17.6427 15.7252C17.3861 15.5565 17.1807 15.3402 17.0267 15.0762C16.8727 14.8122 16.7957 14.4785 16.7957 14.0752C16.7957 13.9065 16.8251 13.7305 16.8837 13.5472C16.9424 13.3565 17.0341 13.1732 17.1587 12.9972C17.2834 12.8212 17.4411 12.6525 17.6317 12.4912C17.8224 12.3298 18.0497 12.1868 18.3137 12.0622C17.7197 11.7468 17.2504 11.3288 16.9057 10.8082C16.5684 10.2875 16.3997 9.68249 16.3997 8.99315C16.3997 8.42115 16.5207 7.90782 16.7627 7.45315C17.0047 6.99115 17.3347 6.60249 17.7527 6.28715C18.1781 5.96449 18.6767 5.71882 19.2487 5.55015C19.8207 5.37415 20.4404 5.28615 21.1077 5.28615ZM23.6377 17.3092C23.6377 17.1258 23.5791 16.9792 23.4617 16.8692C23.3517 16.7592 23.1977 16.6712 22.9997 16.6052C22.8091 16.5392 22.5817 16.4915 22.3177 16.4622C22.0611 16.4328 21.7824 16.4108 21.4817 16.3962C21.1811 16.3815 20.8694 16.3705 20.5467 16.3632C20.2241 16.3485 19.9051 16.3228 19.5897 16.2862C19.3771 16.4328 19.2011 16.5978 19.0617 16.7812C18.9297 16.9572 18.8637 17.1588 18.8637 17.3862C18.8637 17.5475 18.8967 17.6942 18.9627 17.8262C19.0361 17.9582 19.1607 18.0718 19.3367 18.1672C19.5127 18.2625 19.7474 18.3358 20.0407 18.3872C20.3414 18.4458 20.7191 18.4752 21.1737 18.4752C21.6651 18.4752 22.0684 18.4458 22.3837 18.3872C22.6991 18.3285 22.9484 18.2478 23.1317 18.1452C23.3224 18.0425 23.4544 17.9178 23.5277 17.7712C23.6011 17.6318 23.6377 17.4778 23.6377 17.3092ZM21.1077 10.5882C21.6724 10.5882 22.0794 10.4488 22.3287 10.1702C22.5854 9.88415 22.7137 9.51749 22.7137 9.07015C22.7137 8.60815 22.5854 8.24515 22.3287 7.98115C22.0794 7.71715 21.6724 7.58515 21.1077 7.58515C20.5431 7.58515 20.1324 7.71715 19.8757 7.98115C19.6264 8.24515 19.5017 8.60815 19.5017 9.07015C19.5017 9.29015 19.5311 9.49182 19.5897 9.67515C19.6557 9.85849 19.7547 10.0198 19.8867 10.1592C20.0187 10.2912 20.1837 10.3975 20.3817 10.4782C20.5871 10.5515 20.8291 10.5882 21.1077 10.5882Z" fill="#161616"/>
<path d="M36.4734 16.8912C36.1507 16.8912 35.905 16.8472 35.7364 16.7592C35.575 16.6712 35.4394 16.4878 35.3294 16.2092L35.0874 15.5822C34.8014 15.8242 34.5264 16.0368 34.2624 16.2202C33.9984 16.4035 33.7234 16.5612 33.4374 16.6932C33.1587 16.8178 32.858 16.9095 32.5354 16.9682C32.22 17.0342 31.868 17.0672 31.4794 17.0672C30.9587 17.0672 30.4857 17.0012 30.0604 16.8692C29.635 16.7298 29.272 16.5282 28.9714 16.2642C28.678 16.0002 28.4507 15.6738 28.2894 15.2852C28.128 14.8892 28.0474 14.4345 28.0474 13.9212C28.0474 13.5178 28.15 13.1035 28.3554 12.6782C28.5607 12.2528 28.9164 11.8678 29.4224 11.5232C29.9284 11.1712 30.6104 10.8778 31.4684 10.6432C32.3264 10.4085 33.408 10.2765 34.7134 10.2472V9.76315C34.7134 9.09582 34.574 8.61549 34.2954 8.32215C34.024 8.02149 33.6354 7.87115 33.1294 7.87115C32.726 7.87115 32.396 7.91515 32.1394 8.00315C31.8827 8.09115 31.6517 8.19015 31.4464 8.30015C31.2484 8.41015 31.054 8.50915 30.8634 8.59715C30.6727 8.68515 30.4454 8.72915 30.1814 8.72915C29.9467 8.72915 29.745 8.67415 29.5764 8.56415C29.415 8.44682 29.2867 8.30382 29.1914 8.13515L28.5754 7.06815C29.2647 6.45949 30.0274 6.00849 30.8634 5.71515C31.7067 5.41449 32.6087 5.26415 33.5694 5.26415C34.2587 5.26415 34.8784 5.37782 35.4284 5.60515C35.9857 5.82515 36.455 6.13682 36.8364 6.54015C37.225 6.93615 37.522 7.40915 37.7274 7.95915C37.9327 8.50915 38.0354 9.11049 38.0354 9.76315V16.8912H36.4734ZM32.5574 14.8122C32.9973 14.8122 33.3824 14.7352 33.7124 14.5812C34.0424 14.4272 34.376 14.1778 34.7134 13.8332V12.2492C34.0314 12.2785 33.4703 12.3372 33.0303 12.4252C32.5904 12.5132 32.242 12.6232 31.9854 12.7552C31.7287 12.8872 31.549 13.0375 31.4464 13.2062C31.351 13.3748 31.3034 13.5582 31.3034 13.7562C31.3034 14.1448 31.4097 14.4198 31.6224 14.5812C31.835 14.7352 32.1467 14.8122 32.5574 14.8122Z" fill="#161616"/>
<path d="M44.4607 17.0672C43.9181 17.0672 43.4377 16.9902 43.0197 16.8362C42.6091 16.6748 42.2607 16.4512 41.9747 16.1652C41.6961 15.8718 41.4834 15.5198 41.3367 15.1092C41.1901 14.6985 41.1167 14.2402 41.1167 13.7342V7.83815H40.1487C39.9727 7.83815 39.8224 7.78315 39.6977 7.67315C39.5731 7.55582 39.5107 7.38715 39.5107 7.16715V5.83615L41.3257 5.48415L41.9967 2.70115C42.0847 2.34915 42.3341 2.17315 42.7447 2.17315H44.5267V5.50615H47.2987V7.83815H44.5267V13.5032C44.5267 13.7672 44.5891 13.9872 44.7137 14.1632C44.8457 14.3318 45.0327 14.4162 45.2747 14.4162C45.3994 14.4162 45.5021 14.4052 45.5827 14.3832C45.6707 14.3538 45.7441 14.3245 45.8027 14.2952C45.8687 14.2585 45.9274 14.2292 45.9787 14.2072C46.0374 14.1778 46.1034 14.1632 46.1767 14.1632C46.2794 14.1632 46.3601 14.1888 46.4187 14.2402C46.4847 14.2842 46.5507 14.3575 46.6167 14.4602L47.6507 16.0772C47.2107 16.4072 46.7157 16.6565 46.1657 16.8252C45.6157 16.9865 45.0474 17.0672 44.4607 17.0672Z" fill="#161616"/>
<path d="M52.4553 5.48415V12.7222C52.4553 13.2868 52.5837 13.7232 52.8403 14.0312C53.097 14.3392 53.4747 14.4932 53.9733 14.4932C54.3473 14.4932 54.6957 14.4162 55.0183 14.2622C55.3483 14.1082 55.6673 13.8918 55.9753 13.6132V5.48415H59.3853V16.8912H57.2733C56.848 16.8912 56.5693 16.7005 56.4373 16.3192L56.2283 15.6592C56.0083 15.8718 55.781 16.0662 55.5463 16.2422C55.3117 16.4108 55.0587 16.5575 54.7873 16.6822C54.5233 16.7995 54.2373 16.8912 53.9293 16.9572C53.6213 17.0305 53.284 17.0672 52.9173 17.0672C52.294 17.0672 51.7403 16.9608 51.2563 16.7482C50.7797 16.5282 50.3763 16.2238 50.0463 15.8352C49.7163 15.4465 49.467 14.9882 49.2983 14.4602C49.1297 13.9322 49.0453 13.3528 49.0453 12.7222V5.48415H52.4553Z" fill="#161616"/>
<path d="M62.027 16.8912V5.48415H64.051C64.2197 5.48415 64.359 5.49882 64.469 5.52815C64.5864 5.55749 64.6817 5.60515 64.755 5.67115C64.8357 5.72982 64.8944 5.81049 64.931 5.91315C64.975 6.01582 65.0117 6.14049 65.041 6.28715L65.228 7.35415C65.646 6.70882 66.1154 6.19915 66.636 5.82515C67.1567 5.45115 67.725 5.26415 68.341 5.26415C68.8617 5.26415 69.2797 5.38882 69.595 5.63815L69.155 8.14615C69.1257 8.30015 69.067 8.41015 68.979 8.47615C68.891 8.53482 68.7737 8.56415 68.627 8.56415C68.5024 8.56415 68.3557 8.54949 68.187 8.52015C68.0184 8.48349 67.8057 8.46515 67.549 8.46515C66.6544 8.46515 65.9504 8.94182 65.437 9.89515V16.8912H62.027Z" fill="#161616"/>
<path d="M85.6569 8.87215C85.6569 10.0308 85.4553 11.1015 85.0519 12.0842C84.6559 13.0595 84.0949 13.9065 83.3689 14.6252C82.6429 15.3365 81.7666 15.8938 80.7399 16.2972C79.7206 16.6932 78.5876 16.8912 77.3409 16.8912H71.1149V0.864154H77.3409C78.5876 0.864154 79.7206 1.06582 80.7399 1.46915C81.7666 1.87249 82.6429 2.42982 83.3689 3.14115C84.0949 3.85249 84.6559 4.69949 85.0519 5.68215C85.4553 6.65749 85.6569 7.72082 85.6569 8.87215ZM81.8509 8.87215C81.8509 8.08015 81.7483 7.36515 81.5429 6.72715C81.3376 6.08915 81.0406 5.55015 80.6519 5.11015C80.2706 4.66282 79.8013 4.32182 79.2439 4.08715C78.6866 3.84515 78.0523 3.72415 77.3409 3.72415H74.8549V14.0312H77.3409C78.0523 14.0312 78.6866 13.9138 79.2439 13.6792C79.8013 13.4372 80.2706 13.0962 80.6519 12.6562C81.0406 12.2088 81.3376 11.6662 81.5429 11.0282C81.7483 10.3902 81.8509 9.67149 81.8509 8.87215Z" fill="#161616"/>
<path d="M90.6331 5.48415V12.7222C90.6331 13.2868 90.7614 13.7232 91.0181 14.0312C91.2747 14.3392 91.6524 14.4932 92.1511 14.4932C92.5251 14.4932 92.8734 14.4162 93.1961 14.2622C93.5261 14.1082 93.8451 13.8918 94.1531 13.6132V5.48415H97.5631V16.8912H95.4511C95.0257 16.8912 94.7471 16.7005 94.6151 16.3192L94.4061 15.6592C94.1861 15.8718 93.9587 16.0662 93.7241 16.2422C93.4894 16.4108 93.2364 16.5575 92.9651 16.6822C92.7011 16.7995 92.4151 16.8912 92.1071 16.9572C91.7991 17.0305 91.4617 17.0672 91.0951 17.0672C90.4717 17.0672 89.9181 16.9608 89.4341 16.7482C88.9574 16.5282 88.5541 16.2238 88.2241 15.8352C87.8941 15.4465 87.6447 14.9882 87.4761 14.4602C87.3074 13.9322 87.2231 13.3528 87.2231 12.7222V5.48415H90.6331Z" fill="#161616"/>
<path d="M103.725 5.48415V16.8912H100.315V5.48415H103.725ZM104.121 2.36015C104.121 2.63149 104.066 2.88815 103.956 3.13015C103.846 3.36482 103.695 3.57382 103.505 3.75715C103.314 3.93315 103.09 4.07615 102.834 4.18615C102.584 4.28882 102.317 4.34015 102.031 4.34015C101.752 4.34015 101.492 4.28882 101.25 4.18615C101.008 4.07615 100.791 3.93315 100.601 3.75715C100.417 3.57382 100.271 3.36482 100.161 3.13015C100.058 2.88815 100.007 2.63149 100.007 2.36015C100.007 2.08149 100.058 1.82115 100.161 1.57915C100.271 1.33715 100.417 1.12449 100.601 0.941154C100.791 0.75782 101.008 0.614821 101.25 0.512154C101.492 0.409487 101.752 0.358154 102.031 0.358154C102.317 0.358154 102.584 0.409487 102.834 0.512154C103.09 0.614821 103.314 0.75782 103.505 0.941154C103.695 1.12449 103.846 1.33715 103.956 1.57915C104.066 1.82115 104.121 2.08149 104.121 2.36015Z" fill="#161616"/>
<path d="M110.482 17.0672C109.94 17.0672 109.459 16.9902 109.041 16.8362C108.631 16.6748 108.282 16.4512 107.996 16.1652C107.718 15.8718 107.505 15.5198 107.358 15.1092C107.212 14.6985 107.138 14.2402 107.138 13.7342V7.83815H106.17C105.994 7.83815 105.844 7.78315 105.719 7.67315C105.595 7.55582 105.532 7.38715 105.532 7.16715V5.83615L107.347 5.48415L108.018 2.70115C108.106 2.34915 108.356 2.17315 108.766 2.17315H110.548V5.50615H113.32V7.83815H110.548V13.5032C110.548 13.7672 110.611 13.9872 110.735 14.1632C110.867 14.3318 111.054 14.4162 111.296 14.4162C111.421 14.4162 111.524 14.4052 111.604 14.3832C111.692 14.3538 111.766 14.3245 111.824 14.2952C111.89 14.2585 111.949 14.2292 112 14.2072C112.059 14.1778 112.125 14.1632 112.198 14.1632C112.301 14.1632 112.382 14.1888 112.44 14.2402C112.506 14.2842 112.572 14.3575 112.638 14.4602L113.672 16.0772C113.232 16.4072 112.737 16.6565 112.187 16.8252C111.637 16.9865 111.069 17.0672 110.482 17.0672Z" fill="#161616"/>
</svg>
